<svg width="18" height="20" viewBox="0 0 18 20" fill="none" xmlns="http://www.w3.org/2000/svg">
<path d="M17 3.41113C17 2.85108 16.9996 2.57085 16.8906 2.35693C16.7948 2.16877 16.6423 2.0159 16.4542 1.92003C16.2403 1.81104 15.9597 1.81104 15.3996 1.81104H2.59961C2.03956 1.81104 1.75981 1.81104 1.5459 1.92003C1.35774 2.0159 1.20487 2.16877 1.10899 2.35693C1 2.57085 1 2.85108 1 3.41113V4.14839C1 4.39298 1 4.51537 1.02763 4.63046C1.05213 4.73249 1.09263 4.82996 1.14746 4.91943C1.20928 5.02032 1.29591 5.10694 1.46875 5.27979L6.53149 10.3425C6.70443 10.5155 6.79044 10.6015 6.85228 10.7024C6.90711 10.7919 6.94816 10.8897 6.97266 10.9917C7 11.1056 7 11.2266 7 11.4662V16.222C7 17.0793 7 17.5081 7.18054 17.7663C7.33819 17.9917 7.5814 18.142 7.85352 18.1822C8.16514 18.2283 8.54871 18.0368 9.31543 17.6534L10.1154 17.2534C10.4365 17.0929 10.5966 17.0123 10.7139 16.8926C10.8176 16.7867 10.897 16.6595 10.9453 16.5194C11 16.3609 11 16.181 11 15.822V11.4736C11 11.229 11 11.1068 11.0276 10.9917C11.0521 10.8897 11.0926 10.7919 11.1475 10.7024C11.2089 10.6021 11.2947 10.5164 11.4653 10.3457L11.4688 10.3425L16.5315 5.27979C16.7044 5.10683 16.7904 5.02035 16.8523 4.91943C16.9071 4.82996 16.9482 4.73249 16.9727 4.63046C17 4.51654 17 4.39547 17 4.15583V3.41113Z" stroke="white" stroke-width="2" stroke-linecap="round" stroke-linejoin="round"/>
</svg>
